<svg width="46" height="46" viewBox="0 0 46 46" fill="none" xmlns="http://www.w3.org/2000/svg">
<g filter="url(#filter0_d_642_153)">
<circle cx="23" cy="21" r="16" fill="white"/>
</g>
<path fill-rule="evenodd" clip-rule="evenodd" d="M22.3603 12.0199C22.4516 11.9934 22.5484 11.9934 22.6397 12.0199L30.6397 14.3472C30.8532 14.4093 31 14.6049 31 14.8273V16.5C31 16.7761 30.7761 17 30.5 17H14.5C14.2239 17 14 16.7761 14 16.5V14.8273C14 14.6049 14.1468 14.4093 14.3603 14.3472L22.3603 12.0199ZM15 15.2025V16H30V15.2025L22.5 13.0207L15 15.2025Z" fill="#1A1E27"/>
<path fill-rule="evenodd" clip-rule="evenodd" d="M14 27.5C14 27.2239 14.2239 27 14.5 27H30.5C30.7761 27 31 27.2239 31 27.5V29.5C31 29.7761 30.7761 30 30.5 30H14.5C14.2239 30 14 29.7761 14 29.5V27.5ZM15 28V29H30V28H15Z" fill="#1A1E27"/>
<path d="M14.5 16.5H30.5V18.5H14.5V16.5Z" fill="#0BC58D"/>
<path fill-rule="evenodd" clip-rule="evenodd" d="M14 16.5C14 16.2239 14.2239 16 14.5 16H30.5C30.7761 16 31 16.2239 31 16.5V18.5C31 18.7761 30.7761 19 30.5 19H14.5C14.2239 19 14 18.7761 14 18.5V16.5ZM15 17V18H30V17H15Z" fill="#1A1E27"/>
<path d="M15.5 26H18.5V27.5H15.5V26Z" fill="#0BC58D"/>
<path fill-rule="evenodd" clip-rule="evenodd" d="M15 26C15 25.7239 15.2239 25.5 15.5 25.5H18.5C18.7761 25.5 19 25.7239 19 26V27.5C19 27.7761 18.7761 28 18.5 28H15.5C15.2239 28 15 27.7761 15 27.5V26ZM16 26.5V27H18V26.5H16Z" fill="#1A1E27"/>
<path d="M21 26H24V27.5H21V26Z" fill="#0BC58D"/>
<path fill-rule="evenodd" clip-rule="evenodd" d="M20.5 26C20.5 25.7239 20.7239 25.5 21 25.5H24C24.2761 25.5 24.5 25.7239 24.5 26V27.5C24.5 27.7761 24.2761 28 24 28H21C20.7239 28 20.5 27.7761 20.5 27.5V26ZM21.5 26.5V27H23.5V26.5H21.5Z" fill="#1A1E27"/>
<path d="M26.5 26H29.5V27.5H26.5V26Z" fill="#0BC58D"/>
<path fill-rule="evenodd" clip-rule="evenodd" d="M26 26C26 25.7239 26.2239 25.5 26.5 25.5H29.5C29.7761 25.5 30 25.7239 30 26V27.5C30 27.7761 29.7761 28 29.5 28H26.5C26.2239 28 26 27.7761 26 27.5V26ZM27 26.5V27H29V26.5H27Z" fill="#1A1E27"/>
<path fill-rule="evenodd" clip-rule="evenodd" d="M15.5 26.5V18.5H16.5V26.5H15.5ZM17.5 26.5V18.5H18.5V26.5H17.5Z" fill="#1A1E27"/>
<path fill-rule="evenodd" clip-rule="evenodd" d="M21 26.5V18.5H22V26.5H21ZM23 26.5V18.5H24V26.5H23Z" fill="#1A1E27"/>
<path fill-rule="evenodd" clip-rule="evenodd" d="M26.5 26.5V18.5H27.5V26.5H26.5ZM28.5 26.5V18.5H29.5V26.5H28.5Z" fill="#1A1E27"/>
<defs>
<filter id="filter0_d_642_153" x="0" y="0" width="46" height="46" filterUnits="userSpaceOnUse" color-interpolation-filters="sRGB">
<feFlood flood-opacity="0" result="BackgroundImageFix"/>
<feColorMatrix in="SourceAlpha" type="matrix" values="0 0 0 0 0 0 0 0 0 0 0 0 0 0 0 0 0 0 127 0" result="hardAlpha"/>
<feOffset dy="2"/>
<feGaussianBlur stdDeviation="3.5"/>
<feComposite in2="hardAlpha" operator="out"/>
<feColorMatrix type="matrix" values="0 0 0 0 0 0 0 0 0 0 0 0 0 0 0 0 0 0 0.2 0"/>
<feBlend mode="normal" in2="BackgroundImageFix" result="effect1_dropShadow_642_153"/>
<feBlend mode="normal" in="SourceGraphic" in2="effect1_dropShadow_642_153" result="shape"/>
</filter>
</defs>
</svg>
