<svg width="24" height="24" viewBox="0 0 24 24" fill="none" xmlns="http://www.w3.org/2000/svg">
<path d="M8 20H16L16.5 14.5H7.5L8 20Z" fill="#0BC58D"/>
<path d="M7 9H17L16 20H8L7 9Z" stroke="#1A1E27" stroke-width="1.2" stroke-linejoin="round"/>
<path d="M8 20H16L16.5 14.5H7.5L8 20Z" stroke="#1A1E27" stroke-width="1.2" stroke-linejoin="round"/>
<path d="M15.5692 3.18974C15.674 2.87537 15.5041 2.53558 15.1897 2.43079C14.8754 2.326 14.5356 2.4959 14.4308 2.81026L15.5692 3.18974ZM14.5692 6.18974L15.5692 3.18974L14.4308 2.81026L13.4308 5.81026L14.5692 6.18974Z" fill="#1A1E27"/>
<path d="M6.5 6H17.5L18 9H6L6.5 6Z" fill="#0BC58D" stroke="#1A1E27" stroke-width="1.2" stroke-linejoin="round"/>
</svg>
