<svg width="24" height="24" viewBox="0 0 24 24" fill="none" xmlns="http://www.w3.org/2000/svg">
<path fill-rule="evenodd" clip-rule="evenodd" d="M11.8603 3.0199C11.9516 2.99337 12.0484 2.99337 12.1397 3.0199L20.1397 5.34718C20.3532 5.40928 20.5 5.60492 20.5 5.82727V7.5C20.5 7.77614 20.2761 8 20 8H4C3.72386 8 3.5 7.77614 3.5 7.5V5.82727C3.5 5.60492 3.64683 5.40928 3.86034 5.34718L11.8603 3.0199ZM4.5 6.20255V7H19.5V6.20255L12 4.02073L4.5 6.20255Z" fill="#1A1E27"/>
<path fill-rule="evenodd" clip-rule="evenodd" d="M3.5 18.5C3.5 18.2239 3.72386 18 4 18H20C20.2761 18 20.5 18.2239 20.5 18.5V20.5C20.5 20.7761 20.2761 21 20 21H4C3.72386 21 3.5 20.7761 3.5 20.5V18.5ZM4.5 19V20H19.5V19H4.5Z" fill="#1A1E27"/>
<path d="M4 7.5H20V9.5H4V7.5Z" fill="#0BC58D"/>
<path fill-rule="evenodd" clip-rule="evenodd" d="M3.5 7.5C3.5 7.22386 3.72386 7 4 7H20C20.2761 7 20.5 7.22386 20.5 7.5V9.5C20.5 9.77614 20.2761 10 20 10H4C3.72386 10 3.5 9.77614 3.5 9.5V7.5ZM4.5 8V9H19.5V8H4.5Z" fill="#1A1E27"/>
<path d="M5 17H8V18.5H5V17Z" fill="#0BC58D"/>
<path fill-rule="evenodd" clip-rule="evenodd" d="M4.5 17C4.5 16.7239 4.72386 16.5 5 16.5H8C8.27614 16.5 8.5 16.7239 8.5 17V18.5C8.5 18.7761 8.27614 19 8 19H5C4.72386 19 4.5 18.7761 4.5 18.5V17ZM5.5 17.5V18H7.5V17.5H5.5Z" fill="#1A1E27"/>
<path d="M10.5 17H13.5V18.5H10.5V17Z" fill="#0BC58D"/>
<path fill-rule="evenodd" clip-rule="evenodd" d="M10 17C10 16.7239 10.2239 16.5 10.5 16.5H13.5C13.7761 16.5 14 16.7239 14 17V18.5C14 18.7761 13.7761 19 13.5 19H10.5C10.2239 19 10 18.7761 10 18.5V17ZM11 17.5V18H13V17.5H11Z" fill="#1A1E27"/>
<path d="M16 17H19V18.5H16V17Z" fill="#0BC58D"/>
<path fill-rule="evenodd" clip-rule="evenodd" d="M15.5 17C15.5 16.7239 15.7239 16.5 16 16.5H19C19.2761 16.5 19.5 16.7239 19.5 17V18.5C19.5 18.7761 19.2761 19 19 19H16C15.7239 19 15.5 18.7761 15.5 18.5V17ZM16.5 17.5V18H18.5V17.5H16.5Z" fill="#1A1E27"/>
<path fill-rule="evenodd" clip-rule="evenodd" d="M5 17.5V9.5H6V17.5H5ZM7 17.5V9.5H8V17.5H7Z" fill="#1A1E27"/>
<path fill-rule="evenodd" clip-rule="evenodd" d="M10.5 17.5V9.5H11.5V17.5H10.5ZM12.5 17.5V9.5H13.5V17.5H12.5Z" fill="#1A1E27"/>
<path fill-rule="evenodd" clip-rule="evenodd" d="M16 17.5V9.5H17V17.5H16ZM18 17.5V9.5H19V17.5H18Z" fill="#1A1E27"/>
</svg>
