<svg width="current" height="current" viewBox="0 0 32 32" fill="none" xmlns="http://www.w3.org/2000/svg">
<path d="M24.894 16.6725L16.0097 25.3323L7.12545 16.6725C6.53945 16.1112 6.07787 15.4367 5.76977 14.6913C5.46167 13.9459 5.31373 13.1458 5.33526 12.3413C5.35679 11.5369 5.54733 10.7455 5.89487 10.0171C6.24242 9.28868 6.73945 8.63898 7.35465 8.10891C7.96986 7.57883 8.68992 7.17986 9.4695 6.93713C10.2491 6.69439 11.0713 6.61315 11.8843 6.69851C12.6974 6.78387 13.4836 7.03398 14.1936 7.4331C14.9036 7.83223 15.522 8.37171 16.0097 9.01758C16.4996 8.3764 17.1187 7.84163 17.8282 7.44674C18.5377 7.05186 19.3224 6.80535 20.1332 6.72266C20.9439 6.63997 21.7633 6.72287 22.54 6.96617C23.3167 7.20947 24.0341 7.60794 24.6471 8.13664C25.2601 8.66533 25.7557 9.31287 26.1028 10.0387C26.4499 10.7646 26.641 11.5531 26.6641 12.355C26.6873 13.1569 26.5421 13.9549 26.2375 14.699C25.9329 15.4431 25.4755 16.1173 24.894 16.6795" stroke="#C4CAD4" stroke-width="1.5" stroke-linecap="round" stroke-linejoin="round"/>
</svg>
