<svg width="24" height="24" viewBox="0 0 24 24" fill="none" xmlns="http://www.w3.org/2000/svg">
<path fill-rule="evenodd" clip-rule="evenodd" d="M4.34363 4.73815C3.63903 5.73459 3.68454 7.07839 4.45493 8.02488L8.5573 13.065C8.8724 13.4521 9.42472 13.5476 9.8515 13.2887L10.1233 13.1238L16.1293 19.1298C16.5903 19.5909 17.3519 19.5405 17.7482 19.0227C18.0772 18.5927 18.0365 17.9854 17.6529 17.6033L9.34442 9.32728C9.32903 9.31195 9.31329 9.29719 9.2972 9.28298L4.72029 4.70608C4.61194 4.59772 4.43211 4.61303 4.34363 4.73815Z" fill="#0BC58D"/>
<path d="M4.45493 8.02488L3.98959 8.40364L4.45493 8.02488ZM4.34363 4.73815L4.83353 5.08457L4.83353 5.08457L4.34363 4.73815ZM8.5573 13.065L8.09196 13.4437L8.5573 13.065ZM9.8515 13.2887L10.1627 13.8017L10.1627 13.8017L9.8515 13.2887ZM10.1233 13.1238L10.5476 12.6996L10.2147 12.3666L9.81213 12.6108L10.1233 13.1238ZM17.7482 19.0227L17.2717 18.658L17.2717 18.658L17.7482 19.0227ZM17.6529 17.6033L18.0763 17.1782L17.6529 17.6033ZM9.34442 9.32728L8.92099 9.75237L8.92099 9.75237L9.34442 9.32728ZM9.2972 9.28298L8.87294 9.70725L8.88608 9.72039L8.90002 9.7327L9.2972 9.28298ZM4.92027 7.64612C4.31986 6.90846 4.28439 5.86115 4.83353 5.08457L3.85374 4.39174C2.99368 5.60803 3.04922 7.24832 3.98959 8.40364L4.92027 7.64612ZM9.02263 12.6862L4.92027 7.64612L3.98959 8.40364L8.09196 13.4437L9.02263 12.6862ZM9.54032 12.7757C9.3696 12.8793 9.14868 12.8411 9.02263 12.6862L8.09196 13.4437C8.59612 14.0631 9.47983 14.2159 10.1627 13.8017L9.54032 12.7757ZM9.81213 12.6108L9.54031 12.7757L10.1627 13.8017L10.4345 13.6368L9.81213 12.6108ZM16.5536 18.7055L10.5476 12.6996L9.69905 13.5481L15.705 19.5541L16.5536 18.7055ZM17.2717 18.658C17.0959 18.8877 16.7581 18.9101 16.5536 18.7055L15.705 19.5541C16.4226 20.2716 17.6079 20.1932 18.2246 19.3874L17.2717 18.658ZM17.2294 18.0284C17.3996 18.1979 17.4177 18.4673 17.2717 18.658L18.2246 19.3874C18.7368 18.7181 18.6733 17.7729 18.0763 17.1782L17.2294 18.0284ZM8.92099 9.75237L17.2294 18.0284L18.0763 17.1782L9.76785 8.90219L8.92099 9.75237ZM8.90002 9.7327C8.90712 9.73897 8.91411 9.74553 8.92099 9.75237L9.76785 8.90219C9.74395 8.87838 9.71945 8.8554 9.69439 8.83327L8.90002 9.7327ZM4.29603 5.13034L8.87294 9.70725L9.72147 8.85872L5.14456 4.28181L4.29603 5.13034ZM4.83353 5.08457C4.70727 5.26312 4.45066 5.28497 4.29603 5.13034L5.14456 4.28181C4.77321 3.91046 4.15694 3.96295 3.85374 4.39174L4.83353 5.08457Z" fill="#1A1E27"/>
<path d="M16.9094 4.02835L13.5327 7.40496C13.1422 7.79549 13.1422 8.42866 13.5327 8.81918L14.0648 9.35126C14.1429 9.42937 14.1429 9.556 14.0648 9.63411L13.2873 10.4116M20.9931 8.11211L17.6165 11.4887C17.2259 11.8793 16.5928 11.8793 16.2022 11.4887L15.6322 10.9187C15.5541 10.8406 15.4274 10.8406 15.3493 10.9187L14.5718 11.6962M8.08174 15.6171L5.6476 18.0513C5.29288 18.406 5.29288 18.9811 5.6476 19.3358V19.3358C6.00233 19.6906 6.57745 19.6906 6.93217 19.3358L9.99991 16.2681" stroke="#1A1E27" stroke-width="1.2" stroke-linecap="round"/>
<path d="M18.2707 5.38968L16.2288 7.43151" stroke="#1A1E27" stroke-width="1.2" stroke-linecap="round"/>
<path d="M19.6001 6.78223L17.5582 8.82409" stroke="#1A1E27" stroke-width="1.2" stroke-linecap="round"/>
</svg>
