<svg width="24" height="24" viewBox="0 0 24 24" fill="none" xmlns="http://www.w3.org/2000/svg">
<rect x="5" y="10" width="14" height="2" fill="#0BC58D"/>
<path d="M4 18H5.19722C5.39465 18 5.58766 18.0584 5.75192 18.1679L6.24423 18.4962C6.73703 18.8247 7.31605 19 7.90833 19H16.0917C16.6839 19 17.263 18.8247 17.7558 18.4962L18.2481 18.1679C18.4123 18.0584 18.6054 18 18.8028 18H20C20.5523 18 21 17.5523 21 17C21 16.4477 20.5523 16 20 16H18.3028C18.1054 16 17.9123 16.0584 17.7481 16.1679L16.7519 16.8321C16.5877 16.9416 16.3946 17 16.1972 17H7.80278C7.60535 17 7.41234 16.9416 7.24808 16.8321L6.25192 16.1679C6.08766 16.0584 5.89465 16 5.69722 16H4C3.44772 16 3 16.4477 3 17C3 17.5523 3.44772 18 4 18Z" fill="#0BC58D"/>
<path d="M5 11C5 10.4477 5.44772 10 6 10H18C18.5523 10 19 10.4477 19 11V14C19 15.6569 17.6569 17 16 17H8C6.34315 17 5 15.6569 5 14V11Z" stroke="#1A1E27" stroke-width="1.2"/>
<path d="M6 16H4C3.44772 16 3 16.4477 3 17V17C3 17.5523 3.44772 18 4 18H5.19722C5.39465 18 5.58766 18.0584 5.75192 18.1679L6.24423 18.4962C6.73703 18.8247 7.31605 19 7.90833 19H16.0917C16.6839 19 17.263 18.8247 17.7558 18.4962L18.2481 18.1679C18.4123 18.0584 18.6054 18 18.8028 18H20C20.5523 18 21 17.5523 21 17V17C21 16.4477 20.5523 16 20 16H18" stroke="#1A1E27" stroke-width="1.2"/>
<path d="M5 12.5H19" stroke="#1A1E27" stroke-width="1.2"/>
<path d="M8.30799 4C8.02497 4.33333 7.78671 5.38591 8.30795 6C8.76068 6.53338 8.30788 7.66667 8.02489 8" stroke="#1A1E27" stroke-width="1.2" stroke-linecap="round"/>
<path d="M11.808 4C11.525 4.33333 11.2867 5.38591 11.808 6C12.2607 6.53338 11.8079 7.66667 11.5249 8" stroke="#1A1E27" stroke-width="1.2" stroke-linecap="round"/>
<path d="M15.308 4C15.025 4.33333 14.7867 5.38591 15.308 6C15.7607 6.53338 15.3079 7.66667 15.0249 8" stroke="#1A1E27" stroke-width="1.2" stroke-linecap="round"/>
</svg>
