<svg width="46" height="46" viewBox="0 0 46 46" fill="none" xmlns="http://www.w3.org/2000/svg">
<g filter="url(#filter0_d_642_155)">
<circle cx="23" cy="21" r="16" fill="white"/>
</g>
<path fill-rule="evenodd" clip-rule="evenodd" d="M14 22.0012C14 21.725 14.2239 21.5012 14.5 21.5012H30.5C30.7761 21.5012 31 21.725 31 22.0012V27.0012C31 27.2773 30.7761 27.5012 30.5 27.5012H14.5C14.2239 27.5012 14 27.2773 14 27.0012V22.0012ZM15 22.5012V26.5012H30V22.5012H15Z" fill="#1A1E27"/>
<path fill-rule="evenodd" clip-rule="evenodd" d="M15 20.5012C15 20.225 15.2239 20.0012 15.5 20.0012H29.5C29.7761 20.0012 30 20.225 30 20.5012V22.0012C30 22.2773 29.7761 22.5012 29.5 22.5012H15.5C15.2239 22.5012 15 22.2773 15 22.0012V20.5012ZM16 21.0012V21.5012H29V21.0012H16Z" fill="#1A1E27"/>
<path fill-rule="evenodd" clip-rule="evenodd" d="M15 27.0012C15 26.725 15.2239 26.5012 15.5 26.5012H29.5C29.7761 26.5012 30 26.725 30 27.0012V28.5012C30 28.7773 29.7761 29.0012 29.5 29.0012H15.5C15.2239 29.0012 15 28.7773 15 28.5012V27.0012ZM16 27.5012V28.0012H29V27.5012H16Z" fill="#1A1E27"/>
<path fill-rule="evenodd" clip-rule="evenodd" d="M19.5 21.5012C19.7761 21.5012 20 21.725 20 22.0012V27.0012C20 27.2773 19.7761 27.5012 19.5 27.5012C19.2239 27.5012 19 27.2773 19 27.0012V22.0012C19 21.725 19.2239 21.5012 19.5 21.5012Z" fill="#1A1E27"/>
<path d="M24.5 18.5009C24.5 20.1577 22.7091 20.5009 20.5 20.5009C18.2909 20.5009 16.5 20.1577 16.5 18.5009C16.5 17.3904 17.3044 16.3161 18.5 15.5011C18.8095 15.2902 19.1452 15.1154 19.5 15.0011C19.6595 14.9498 19.3418 14.5011 19.5 14.0013C19.6672 13.473 20.327 13.5004 20.5 13.5004C20.673 13.5004 21.3328 13.4728 21.5 14.0011C21.6665 14.5273 21.3405 14.9498 21.5 15.0011C21.8548 15.1154 22.1905 15.2902 22.5 15.5011C23.6956 16.3161 24.5 17.3904 24.5 18.5009Z" fill="#0BC58D"/>
<path fill-rule="evenodd" clip-rule="evenodd" d="M20.5236 14.0004C20.5156 14.0004 20.5077 14.0004 20.5 14.0004C20.4924 14.0004 20.4845 14.0004 20.4766 14.0004C20.3763 14.0002 20.253 13.9999 20.135 14.0336C20.02 14.0664 19.9913 14.106 19.9767 14.1522C19.9396 14.2695 19.9524 14.3961 19.9889 14.5623C19.9909 14.5715 19.9935 14.583 19.9966 14.5963C20.0115 14.6611 20.0361 14.7676 20.0432 14.8509C20.0478 14.9044 20.0536 15.0178 20.0068 15.1412C19.9477 15.2971 19.8223 15.4227 19.6533 15.4771C19.3519 15.5741 19.059 15.7252 18.7816 15.9143C17.6421 16.691 17 17.6338 17 18.5009C17 18.819 17.0837 19.0412 17.2118 19.209C17.3446 19.3829 17.5533 19.535 17.8591 19.6587C18.4867 19.9126 19.4023 20.0009 20.5 20.0009C21.5977 20.0009 22.5133 19.9126 23.1409 19.6587C23.4467 19.535 23.6554 19.3829 23.7882 19.209C23.9163 19.0412 24 18.819 24 18.5009C24 17.6338 23.3579 16.691 22.2184 15.9143C21.941 15.7252 21.6481 15.5741 21.3467 15.4771C21.1847 15.4249 21.0554 15.3046 20.9939 15.1432C20.9454 15.0163 20.9533 14.9 20.9586 14.8472C20.9666 14.7681 20.9922 14.6628 21.0072 14.6012C21.0105 14.5876 21.0133 14.5761 21.0153 14.5675C21.0505 14.4138 21.0653 14.2846 21.0233 14.152C21.0087 14.1059 20.9801 14.0663 20.8651 14.0335C20.7472 13.9999 20.624 14.0002 20.5236 14.0004ZM21.1392 13.0718C21.4392 13.1573 21.8241 13.3681 21.9767 13.8503C22.0779 14.1699 22.054 14.4576 22.0167 14.6626C22.2879 14.7804 22.5437 14.9259 22.7816 15.088C24.0333 15.9412 25 17.147 25 18.5009C25 19.0111 24.8598 19.4532 24.5831 19.8157C24.3111 20.1721 23.934 20.4165 23.516 20.5857C22.6958 20.9175 21.6114 21.0009 20.5 21.0009C19.3886 21.0009 18.3042 20.9175 17.484 20.5857C17.066 20.4165 16.6889 20.1721 16.4169 19.8157C16.1402 19.4532 16 19.0111 16 18.5009C16 17.147 16.9667 15.9412 18.2184 15.088C18.4578 14.9248 18.7153 14.7785 18.9885 14.6604C18.9515 14.4578 18.9234 14.166 19.0233 13.8504C19.1759 13.3683 19.5607 13.1575 19.8607 13.0719C20.1244 12.9967 20.3842 12.9993 20.4786 13.0003C20.4871 13.0004 20.4943 13.0004 20.5 13.0004C20.5057 13.0004 20.5129 13.0004 20.5215 13.0003C20.6159 12.9993 20.8756 12.9967 21.1392 13.0718Z" fill="#1A1E27"/>
<path d="M24.5 20.5008C26.7091 20.5008 28.5 20.1577 28.5 18.5008C28.5 17.3904 27.6956 16.3161 26.5 15.5011C26.1905 15.2902 25.8548 15.1154 25.5 15.0011C25.3405 14.9498 25.6665 14.5273 25.5 14.0011C25.3328 13.4728 24.673 13.5004 24.5 13.5004C24.327 13.5004 23.6672 13.473 23.5 14.0013C23.3418 14.5011 23.6595 14.9498 23.5 15.0011C23.1452 15.1154 22.8095 15.2902 22.5 15.5011C23 15.8345 24.1 16.8012 24.5 18.0012C24.9 19.2012 23.6667 20.1191 23 20.4281C23.4632 20.4811 23.9695 20.5008 24.5 20.5008Z" fill="#0BC58D"/>
<path fill-rule="evenodd" clip-rule="evenodd" d="M24.5236 14.0004C24.5156 14.0004 24.5077 14.0004 24.5 14.0004C24.4924 14.0004 24.4846 14.0004 24.4766 14.0004C24.3763 14.0002 24.253 13.9999 24.135 14.0336C24.02 14.0664 23.9913 14.106 23.9767 14.1522C23.9396 14.2695 23.9524 14.3961 23.9889 14.5623C23.9909 14.5715 23.9935 14.583 23.9966 14.5963C24.0115 14.6611 24.0361 14.7676 24.0432 14.8509C24.0478 14.9044 24.0536 15.0178 24.0068 15.1412C23.9477 15.2971 23.8223 15.4227 23.6533 15.4771C23.5662 15.5051 23.4799 15.5377 23.3944 15.5743C23.5614 15.7254 23.7373 15.8995 23.9102 16.0929C24.3244 16.5561 24.7454 17.1561 24.9743 17.8431C25.2466 18.6598 24.9455 19.3654 24.5372 19.8651C24.4992 19.9116 24.46 19.9568 24.4197 20.0007C24.4464 20.0008 24.4731 20.0009 24.5 20.0009C25.5977 20.0009 26.5133 19.9126 27.1409 19.6587C27.4467 19.535 27.6554 19.3829 27.7882 19.209C27.9163 19.0412 28 18.819 28 18.5009C28 17.6338 27.3579 16.691 26.2184 15.9143C25.941 15.7252 25.6481 15.5741 25.3467 15.4771C25.1847 15.4249 25.0555 15.3046 24.9939 15.1432C24.9454 15.0163 24.9533 14.9 24.9586 14.8472C24.9666 14.7681 24.9922 14.6628 25.0072 14.6012C25.0105 14.5876 25.0133 14.5761 25.0153 14.5675C25.0505 14.4138 25.0653 14.2846 25.0233 14.152C25.0087 14.1059 24.9801 14.0663 24.8651 14.0335C24.7472 13.9999 24.624 14.0002 24.5236 14.0004ZM25.1392 13.0718C25.4392 13.1573 25.8241 13.3681 25.9767 13.8503C26.0779 14.1699 26.054 14.4576 26.0167 14.6626C26.288 14.7804 26.5438 14.9259 26.7816 15.088C28.0333 15.9412 29 17.147 29 18.5009C29 19.0111 28.8598 19.4532 28.5831 19.8157C28.3111 20.1721 27.934 20.4165 27.516 20.5857C26.6958 20.9175 25.6114 21.0009 24.5 21.0009C23.9585 21.0009 23.4318 20.9807 22.9432 20.9248L21.1755 20.7226L22.7898 19.9744C23.0739 19.8428 23.4809 19.5774 23.7628 19.2324C24.0378 18.8959 24.1534 18.5426 24.0257 18.1593C23.8546 17.6462 23.5256 17.1629 23.1648 16.7595C22.8049 16.357 22.4369 16.06 22.2227 15.9172L21.6055 15.5058L22.2184 15.088C22.4578 14.9248 22.7153 14.7785 22.9885 14.6604C22.9515 14.4578 22.9234 14.166 23.0233 13.8504C23.1759 13.3683 23.5607 13.1575 23.8607 13.0719C24.1244 12.9967 24.3842 12.9993 24.4786 13.0003C24.4871 13.0004 24.4943 13.0004 24.5 13.0004C24.5057 13.0004 24.5129 13.0004 24.5215 13.0003C24.6159 12.9993 24.8756 12.9967 25.1392 13.0718Z" fill="#1A1E27"/>
<path fill-rule="evenodd" clip-rule="evenodd" d="M19.8746 16.0379C20.1306 16.1413 20.2543 16.4327 20.1509 16.6888L19.7763 17.616C19.6728 17.872 19.3814 17.9957 19.1254 17.8923C18.8693 17.7888 18.7456 17.4974 18.8491 17.2414L19.2237 16.3142C19.3271 16.0581 19.6185 15.9344 19.8746 16.0379Z" fill="#1A1E27"/>
<path fill-rule="evenodd" clip-rule="evenodd" d="M21.1254 16.0379C20.8693 16.1413 20.7456 16.4327 20.8491 16.6888L21.2237 17.616C21.3271 17.872 21.6185 17.9957 21.8746 17.8923C22.1306 17.7888 22.2543 17.4974 22.1509 17.2414L21.7763 16.3142C21.6728 16.0581 21.3814 15.9344 21.1254 16.0379Z" fill="#1A1E27"/>
<path fill-rule="evenodd" clip-rule="evenodd" d="M16.5 23.5012C16.5 23.225 16.7239 23.0012 17 23.0012H18C18.2761 23.0012 18.5 23.225 18.5 23.5012C18.5 23.7773 18.2761 24.0012 18 24.0012H17C16.7239 24.0012 16.5 23.7773 16.5 23.5012Z" fill="#1A1E27"/>
<path fill-rule="evenodd" clip-rule="evenodd" d="M16.5 25.5012C16.5 25.225 16.7239 25.0012 17 25.0012H18C18.2761 25.0012 18.5 25.225 18.5 25.5012C18.5 25.7773 18.2761 26.0012 18 26.0012H17C16.7239 26.0012 16.5 25.7773 16.5 25.5012Z" fill="#1A1E27"/>
<defs>
<filter id="filter0_d_642_155" x="0" y="0" width="46" height="46" filterUnits="userSpaceOnUse" color-interpolation-filters="sRGB">
<feFlood flood-opacity="0" result="BackgroundImageFix"/>
<feColorMatrix in="SourceAlpha" type="matrix" values="0 0 0 0 0 0 0 0 0 0 0 0 0 0 0 0 0 0 127 0" result="hardAlpha"/>
<feOffset dy="2"/>
<feGaussianBlur stdDeviation="3.5"/>
<feComposite in2="hardAlpha" operator="out"/>
<feColorMatrix type="matrix" values="0 0 0 0 0 0 0 0 0 0 0 0 0 0 0 0 0 0 0.2 0"/>
<feBlend mode="normal" in2="BackgroundImageFix" result="effect1_dropShadow_642_155"/>
<feBlend mode="normal" in="SourceGraphic" in2="effect1_dropShadow_642_155" result="shape"/>
</filter>
</defs>
</svg>
