<svg width="24" height="24" viewBox="0 0 24 24" fill="none" xmlns="http://www.w3.org/2000/svg">
<path fill-rule="evenodd" clip-rule="evenodd" d="M3.5 13.001C3.5 12.7248 3.72386 12.501 4 12.501H20C20.2761 12.501 20.5 12.7248 20.5 13.001V18.001C20.5 18.2771 20.2761 18.501 20 18.501H4C3.72386 18.501 3.5 18.2771 3.5 18.001V13.001ZM4.5 13.501V17.501H19.5V13.501H4.5Z" fill="#1A1E27"/>
<path fill-rule="evenodd" clip-rule="evenodd" d="M4.5 11.501C4.5 11.2248 4.72386 11.001 5 11.001H19C19.2761 11.001 19.5 11.2248 19.5 11.501V13.001C19.5 13.2771 19.2761 13.501 19 13.501H5C4.72386 13.501 4.5 13.2771 4.5 13.001V11.501ZM5.5 12.001V12.501H18.5V12.001H5.5Z" fill="#1A1E27"/>
<path fill-rule="evenodd" clip-rule="evenodd" d="M4.5 18.001C4.5 17.7248 4.72386 17.501 5 17.501H19C19.2761 17.501 19.5 17.7248 19.5 18.001V19.501C19.5 19.7771 19.2761 20.001 19 20.001H5C4.72386 20.001 4.5 19.7771 4.5 19.501V18.001ZM5.5 18.501V19.001H18.5V18.501H5.5Z" fill="#1A1E27"/>
<path fill-rule="evenodd" clip-rule="evenodd" d="M9 12.501C9.27614 12.501 9.5 12.7248 9.5 13.001V18.001C9.5 18.2771 9.27614 18.501 9 18.501C8.72386 18.501 8.5 18.2771 8.5 18.001V13.001C8.5 12.7248 8.72386 12.501 9 12.501Z" fill="#1A1E27"/>
<path d="M14 9.50067C14 11.1575 12.2091 11.5007 10 11.5007C7.79086 11.5007 6 11.1575 6 9.50067C6 8.39025 6.8044 7.31595 8 6.50096C8.30951 6.28999 8.64523 6.1152 9 6.00096C9.15948 5.94961 8.84179 5.50096 9 5.00109C9.16722 4.47277 9.82699 4.50025 10 4.50025C10.173 4.50025 10.8328 4.47264 11 5.00096C11.1665 5.5271 10.8405 5.94961 11 6.00096C11.3548 6.1152 11.6905 6.28999 12 6.50096C13.1956 7.31595 14 8.39025 14 9.50067Z" fill="#0BC58D"/>
<path fill-rule="evenodd" clip-rule="evenodd" d="M10.0236 5.00041C10.0156 5.00043 10.0077 5.00045 10 5.00045C9.99235 5.00045 9.98455 5.00043 9.97659 5.00041C9.87628 5.00019 9.75298 4.99992 9.63496 5.03358C9.51998 5.06637 9.4913 5.10601 9.47669 5.15217C9.43956 5.2695 9.45242 5.39612 9.48887 5.5623C9.49089 5.57152 9.49354 5.58302 9.49659 5.59626C9.51154 5.6611 9.53608 5.76757 9.54321 5.85093C9.54779 5.90444 9.5536 6.01783 9.50682 6.14121C9.4477 6.29715 9.32231 6.42265 9.15326 6.47709C8.85194 6.57412 8.55905 6.72519 8.28162 6.9143C7.14214 7.69103 6.5 8.63384 6.5 9.50086C6.5 9.81901 6.58369 10.0412 6.71178 10.209C6.84458 10.3829 7.05333 10.535 7.35912 10.6587C7.98667 10.9126 8.90226 11.0009 10 11.0009C11.0977 11.0009 12.0133 10.9126 12.6409 10.6587C12.9467 10.535 13.1554 10.3829 13.2882 10.209C13.4163 10.0412 13.5 9.81901 13.5 9.50086C13.5 8.63384 12.8579 7.69103 11.7184 6.9143C11.441 6.72519 11.1481 6.57412 10.8467 6.47709C10.6847 6.4249 10.5554 6.30464 10.4939 6.14322C10.4454 6.01626 10.4533 5.90001 10.4586 5.84722C10.4666 5.76808 10.4922 5.66278 10.5072 5.60116C10.5105 5.58757 10.5133 5.5761 10.5153 5.56751C10.5505 5.41376 10.5653 5.2846 10.5233 5.15203C10.5087 5.10591 10.4801 5.0663 10.3651 5.03353C10.2472 4.99991 10.124 5.00018 10.0236 5.00041ZM10.6392 4.07183C10.9392 4.15734 11.3241 4.36808 11.4767 4.85028C11.5779 5.16992 11.554 5.45763 11.5167 5.66259C11.7879 5.78038 12.0437 5.92586 12.2816 6.08801C13.5333 6.94125 14.5 8.14702 14.5 9.50086C14.5 10.0111 14.3598 10.4532 14.0831 10.8157C13.8111 11.1721 13.434 11.4165 13.016 11.5857C12.1958 11.9175 11.1114 12.0009 10 12.0009C8.8886 12.0009 7.80419 11.9175 6.98403 11.5857C6.56596 11.4165 6.18893 11.1721 5.9169 10.8157C5.64017 10.4532 5.5 10.0111 5.5 9.50086C5.5 8.14702 6.46666 6.94125 7.71838 6.08801C7.95776 5.92484 8.21529 5.77854 8.48846 5.66035C8.45146 5.45785 8.42342 5.166 8.52331 4.85041C8.67592 4.36825 9.06073 4.15747 9.3607 4.07192C9.62441 3.99671 9.88416 3.99933 9.97855 4.00029C9.9871 4.00037 9.99429 4.00045 10 4.00045C10.0057 4.00045 10.0129 4.00037 10.0215 4.00029C10.1159 3.99933 10.3756 3.99669 10.6392 4.07183Z" fill="#1A1E27"/>
<path d="M14 11.5007C16.2091 11.5007 18 11.1575 18 9.50066C18 8.39023 17.1956 7.31594 16 6.50096C15.6905 6.28998 15.3548 6.1152 15 6.00096C14.8405 5.9496 15.1665 5.52709 15 5.00096C14.8328 4.47264 14.173 4.50025 14 4.50025C13.827 4.50025 13.1672 4.47277 13 5.00109C12.8418 5.50096 13.1595 5.9496 13 6.00096C12.6452 6.1152 12.3095 6.28998 12 6.50096C12.5 6.83429 13.6 7.80098 14 9.00098C14.4 10.201 13.1667 11.1189 12.5 11.4279C12.9632 11.4809 13.4695 11.5007 14 11.5007Z" fill="#0BC58D"/>
<path fill-rule="evenodd" clip-rule="evenodd" d="M14.0236 5.00041C14.0156 5.00043 14.0077 5.00045 14 5.00045C13.9924 5.00045 13.9846 5.00043 13.9766 5.00041C13.8763 5.00019 13.753 4.99992 13.635 5.03358C13.52 5.06637 13.4913 5.10601 13.4767 5.15217C13.4396 5.2695 13.4524 5.39612 13.4889 5.5623C13.4909 5.57152 13.4935 5.58302 13.4966 5.59627C13.5115 5.6611 13.5361 5.76757 13.5432 5.85093C13.5478 5.90444 13.5536 6.01783 13.5068 6.14121C13.4477 6.29715 13.3223 6.42265 13.1533 6.47709C13.0662 6.50512 12.9799 6.53765 12.8944 6.57431C13.0614 6.72539 13.2373 6.89947 13.4102 7.09287C13.8244 7.5561 14.2454 8.15614 14.4743 8.84306C14.7466 9.65978 14.4455 10.3654 14.0372 10.8651C13.9992 10.9116 13.96 10.9568 13.9197 11.0007C13.9464 11.0008 13.9731 11.0009 14 11.0009C15.0977 11.0009 16.0133 10.9126 16.6409 10.6587C16.9467 10.535 17.1554 10.3829 17.2882 10.209C17.4163 10.0412 17.5 9.81901 17.5 9.50086C17.5 8.63384 16.8579 7.69103 15.7184 6.9143C15.441 6.72519 15.1481 6.57412 14.8467 6.47709C14.6847 6.4249 14.5555 6.30464 14.4939 6.14322C14.4454 6.01626 14.4533 5.90001 14.4586 5.84722C14.4666 5.76808 14.4922 5.66278 14.5072 5.60116C14.5105 5.58757 14.5133 5.5761 14.5153 5.56751C14.5505 5.41376 14.5653 5.2846 14.5233 5.15203C14.5087 5.10591 14.4801 5.0663 14.3651 5.03353C14.2472 4.99991 14.124 5.00018 14.0236 5.00041ZM14.6392 4.07183C14.9392 4.15734 15.3241 4.36808 15.4767 4.85028C15.5779 5.16992 15.554 5.45763 15.5167 5.66258C15.788 5.78038 16.0438 5.92586 16.2816 6.08801C17.5333 6.94125 18.5 8.14702 18.5 9.50086C18.5 10.0111 18.3598 10.4532 18.0831 10.8157C17.8111 11.1721 17.434 11.4165 17.016 11.5857C16.1958 11.9175 15.1114 12.0009 14 12.0009C13.4585 12.0009 12.9318 11.9807 12.4432 11.9248L10.6755 11.7226L12.2898 10.9744C12.5739 10.8428 12.9809 10.5774 13.2628 10.2324C13.5378 9.8959 13.6534 9.54257 13.5257 9.15929C13.3546 8.64621 13.0256 8.16291 12.6648 7.75946C12.3049 7.35703 11.9369 7.05998 11.7227 6.91718L11.1055 6.50576L11.7184 6.08801C11.9578 5.92484 12.2153 5.77854 12.4885 5.66035C12.4515 5.45785 12.4234 5.166 12.5233 4.85041C12.6759 4.36825 13.0607 4.15747 13.3607 4.07192C13.6244 3.99671 13.8842 3.99933 13.9786 4.00029C13.9871 4.00037 13.9943 4.00045 14 4.00045C14.0057 4.00045 14.0129 4.00037 14.0215 4.00029C14.1159 3.99933 14.3756 3.99669 14.6392 4.07183Z" fill="#1A1E27"/>
<path fill-rule="evenodd" clip-rule="evenodd" d="M9.37457 7.03789C9.63061 7.14133 9.75431 7.43275 9.65086 7.68878L9.27625 8.61597C9.17281 8.872 8.88139 8.9957 8.62536 8.89226C8.36932 8.78881 8.24563 8.4974 8.34907 8.24136L8.72368 7.31418C8.82712 7.05814 9.11854 6.93444 9.37457 7.03789Z" fill="#1A1E27"/>
<path fill-rule="evenodd" clip-rule="evenodd" d="M10.6254 7.03789C10.3693 7.14133 10.2456 7.43275 10.3491 7.68878L10.7237 8.61597C10.8271 8.872 11.1185 8.9957 11.3746 8.89226C11.6306 8.78881 11.7543 8.4974 11.6509 8.24136L11.2763 7.31418C11.1728 7.05814 10.8814 6.93444 10.6254 7.03789Z" fill="#1A1E27"/>
<path fill-rule="evenodd" clip-rule="evenodd" d="M6 14.501C6 14.2248 6.22386 14.001 6.5 14.001H7.5C7.77614 14.001 8 14.2248 8 14.501C8 14.7771 7.77614 15.001 7.5 15.001H6.5C6.22386 15.001 6 14.7771 6 14.501Z" fill="#1A1E27"/>
<path fill-rule="evenodd" clip-rule="evenodd" d="M6 16.501C6 16.2248 6.22386 16.001 6.5 16.001H7.5C7.77614 16.001 8 16.2248 8 16.501C8 16.7771 7.77614 17.001 7.5 17.001H6.5C6.22386 17.001 6 16.7771 6 16.501Z" fill="#1A1E27"/>
</svg>
