<svg width="33" height="33" viewBox="0 0 33 33" fill="none" xmlns="http://www.w3.org/2000/svg">
<path d="M25.394 17.1729L16.5097 25.8327L7.62544 17.1729C7.03944 16.6116 6.57786 15.9371 6.26976 15.1917C5.96166 14.4463 5.81371 13.6461 5.83524 12.8417C5.85678 12.0373 6.04731 11.2459 6.39486 10.5175C6.74241 9.78908 7.23943 9.13938 7.85464 8.60931C8.46985 8.07923 9.18991 7.68026 9.96949 7.43752C10.7491 7.19479 11.5713 7.11354 12.3843 7.1989C13.1973 7.28426 13.9836 7.53438 14.6936 7.9335C15.4036 8.33262 16.022 8.87211 16.5097 9.51798C16.9996 8.8768 17.6186 8.34203 18.3282 7.94714C19.0377 7.55225 19.8224 7.30575 20.6331 7.22306C21.4439 7.14036 22.2633 7.22326 23.04 7.46657C23.8167 7.70987 24.534 8.10834 25.1471 8.63703C25.7601 9.16573 26.2557 9.81327 26.6028 10.5391C26.9498 11.265 27.1409 12.0535 27.1641 12.8554C27.1873 13.6573 27.0421 14.4553 26.7375 15.1994C26.4329 15.9435 25.9755 16.6177 25.394 17.1799" fill="#0BC58D"/>
<path d="M25.394 17.1729L16.5097 25.8327L7.62544 17.1729C7.03944 16.6116 6.57786 15.9371 6.26976 15.1917C5.96166 14.4463 5.81371 13.6461 5.83524 12.8417C5.85678 12.0373 6.04731 11.2459 6.39486 10.5175C6.74241 9.78908 7.23943 9.13938 7.85464 8.60931C8.46985 8.07923 9.18991 7.68026 9.96949 7.43752C10.7491 7.19479 11.5713 7.11354 12.3843 7.1989C13.1973 7.28426 13.9836 7.53438 14.6936 7.9335C15.4036 8.33262 16.022 8.87211 16.5097 9.51798C16.9996 8.8768 17.6186 8.34203 18.3282 7.94714C19.0377 7.55225 19.8224 7.30575 20.6331 7.22306C21.4439 7.14036 22.2633 7.22326 23.04 7.46657C23.8167 7.70987 24.534 8.10834 25.1471 8.63703C25.7601 9.16573 26.2557 9.81327 26.6028 10.5391C26.9498 11.265 27.1409 12.0535 27.1641 12.8554C27.1873 13.6573 27.0421 14.4553 26.7375 15.1994C26.4329 15.9435 25.9755 16.6177 25.394 17.1799" stroke="#0BC58D" stroke-width="1.5" stroke-linecap="round" stroke-linejoin="round"/>
</svg>
