<svg width="current" height="current" viewBox="0 0 70 70" fill="none" xmlns="http://www.w3.org/2000/svg">
<path fill-rule="evenodd" clip-rule="evenodd" d="M6 44.4813C6 40.7551 9.0207 37.7344 12.7469 37.7344H14.771V51.2282H12.7469C9.0207 51.2282 6 48.2075 6 44.4813Z" fill="white"/>
<path fill-rule="evenodd" clip-rule="evenodd" d="M40.4103 17.4939C34.8209 17.4939 30.2899 22.0249 30.2899 27.6143V58.6501C30.2899 62.3764 27.2692 65.3971 23.543 65.3971C19.8167 65.3971 16.796 62.3764 16.796 58.6501V27.6143C16.796 14.5725 27.3685 4 40.4103 4C53.4521 4 64.0245 14.5725 64.0245 27.6143C64.0245 40.656 53.4521 51.2285 40.4103 51.2285H32.314V37.7346H40.4103C45.9996 37.7346 50.5307 33.2036 50.5307 27.6143C50.5307 22.0249 45.9996 17.4939 40.4103 17.4939Z" fill="white"/>
</svg>
