<svg width="24" height="24" viewBox="0 0 24 24" fill="none" xmlns="http://www.w3.org/2000/svg">
<g clip-path="url(#clip0_233_9703)">
<path fill-rule="evenodd" clip-rule="evenodd" d="M6 11C5.44772 11 5 11.4477 5 12V13L19 13V12C19 11.4477 18.5523 11 18 11H6Z" fill="#0BC58D"/>
<path d="M5 12C5 11.4477 5.44772 11 6 11H18C18.5523 11 19 11.4477 19 12V13C19 15.7614 16.7614 18 14 18H10C7.23858 18 5 15.7614 5 13V12Z" stroke="#1A1E27" stroke-width="1.2"/>
<rect x="9" y="18" width="6" height="1.5" rx="0.75" fill="#0BC58D" stroke="#1A1E27" stroke-width="1.2"/>
<line x1="5" y1="13.4" x2="19" y2="13.4" stroke="#1A1E27" stroke-width="1.2"/>
<path d="M9.5 6V11" stroke="#1A1E27" stroke-width="1.2" stroke-linecap="round"/>
<path d="M12 6V11" stroke="#1A1E27" stroke-width="1.2" stroke-linecap="round"/>
<path d="M14.5 6V11" stroke="#1A1E27" stroke-width="1.2" stroke-linecap="round"/>
<path d="M8 5.5H19" stroke="#1A1E27" stroke-width="1.2" stroke-linecap="round"/>
<path d="M8 8H9.5M19 8H14.7222" stroke="#1A1E27" stroke-width="1.2" stroke-linecap="round"/>
</g>
<defs>
<clipPath id="clip0_233_9703">
<rect width="24" height="24" fill="white"/>
</clipPath>
</defs>
</svg>
