<svg width="47" height="46" viewBox="0 0 47 46" fill="none" xmlns="http://www.w3.org/2000/svg">
<g filter="url(#filter0_d_720_2080)">
<circle cx="23.5" cy="21" r="16" fill="white"/>
</g>
<path fill-rule="evenodd" clip-rule="evenodd" d="M15.8436 13.7382C15.139 14.7346 15.1845 16.0784 15.9549 17.0249L20.0573 22.065C20.3724 22.4521 20.9247 22.5476 21.3515 22.2887L21.6233 22.1238L27.6293 28.1298C28.0903 28.5909 28.8519 28.5405 29.2482 28.0227C29.5772 27.5927 29.5365 26.9854 29.1529 26.6033L20.8444 18.3273C20.829 18.312 20.8133 18.2972 20.7972 18.283L16.2203 13.7061C16.1119 13.5977 15.9321 13.613 15.8436 13.7382Z" fill="#0BC58D"/>
<path d="M15.9549 17.0249L15.4896 17.4036L15.9549 17.0249ZM15.8436 13.7382L16.3335 14.0846L16.3335 14.0846L15.8436 13.7382ZM20.0573 22.065L19.592 22.4437L20.0573 22.065ZM21.3515 22.2887L21.6627 22.8017L21.6627 22.8017L21.3515 22.2887ZM21.6233 22.1238L22.0476 21.6996L21.7147 21.3666L21.3121 21.6108L21.6233 22.1238ZM29.2482 28.0227L28.7717 27.658L28.7717 27.658L29.2482 28.0227ZM29.1529 26.6033L29.5763 26.1782L29.1529 26.6033ZM20.8444 18.3273L20.421 18.7524L20.421 18.7524L20.8444 18.3273ZM20.7972 18.283L20.3729 18.7072L20.3861 18.7204L20.4 18.7327L20.7972 18.283ZM16.4203 16.6461C15.8199 15.9085 15.7844 14.8612 16.3335 14.0846L15.3537 13.3917C14.4937 14.608 14.5492 16.2483 15.4896 17.4036L16.4203 16.6461ZM20.5226 21.6862L16.4203 16.6461L15.4896 17.4036L19.592 22.4437L20.5226 21.6862ZM21.0403 21.7757C20.8696 21.8793 20.6487 21.8411 20.5226 21.6862L19.592 22.4437C20.0961 23.0631 20.9798 23.2159 21.6627 22.8017L21.0403 21.7757ZM21.3121 21.6108L21.0403 21.7757L21.6627 22.8017L21.9345 22.6368L21.3121 21.6108ZM28.0536 27.7055L22.0476 21.6996L21.199 22.5481L27.205 28.5541L28.0536 27.7055ZM28.7717 27.658C28.5959 27.8877 28.2581 27.9101 28.0536 27.7055L27.205 28.5541C27.9226 29.2716 29.1079 29.1932 29.7246 28.3874L28.7717 27.658ZM28.7294 27.0284C28.8996 27.1979 28.9177 27.4673 28.7717 27.658L29.7246 28.3874C30.2368 27.7181 30.1733 26.7729 29.5763 26.1782L28.7294 27.0284ZM20.421 18.7524L28.7294 27.0284L29.5763 26.1782L21.2679 17.9022L20.421 18.7524ZM20.4 18.7327C20.4071 18.739 20.4141 18.7455 20.421 18.7524L21.2679 17.9022C21.244 17.8784 21.2195 17.8554 21.1944 17.8333L20.4 18.7327ZM15.796 14.1303L20.3729 18.7072L21.2215 17.8587L16.6446 13.2818L15.796 14.1303ZM16.3335 14.0846C16.2073 14.2631 15.9507 14.285 15.796 14.1303L16.6446 13.2818C16.2732 12.9105 15.6569 12.9629 15.3537 13.3917L16.3335 14.0846Z" fill="#1A1E27"/>
<path d="M28.4094 13.0283L25.0327 16.405C24.6422 16.7955 24.6422 17.4287 25.0327 17.8192L25.5648 18.3513C25.6429 18.4294 25.6429 18.556 25.5648 18.6341L24.7873 19.4116M32.4931 17.1121L29.1165 20.4887C28.726 20.8793 28.0928 20.8793 27.7023 20.4887L27.1322 19.9187C27.0541 19.8406 26.9275 19.8406 26.8494 19.9187L26.0719 20.6962M19.5818 24.6171L17.1476 27.0513C16.7929 27.406 16.7929 27.9811 17.1476 28.3358V28.3358C17.5024 28.6906 18.0775 28.6906 18.4322 28.3358L21.4999 25.2681" stroke="#1A1E27" stroke-width="1.2" stroke-linecap="round"/>
<path d="M29.7707 14.3897L27.7288 16.4315" stroke="#1A1E27" stroke-width="1.2" stroke-linecap="round"/>
<path d="M31.1001 15.7822L29.0582 17.8241" stroke="#1A1E27" stroke-width="1.2" stroke-linecap="round"/>
<defs>
<filter id="filter0_d_720_2080" x="0.5" y="0" width="46" height="46" filterUnits="userSpaceOnUse" color-interpolation-filters="sRGB">
<feFlood flood-opacity="0" result="BackgroundImageFix"/>
<feColorMatrix in="SourceAlpha" type="matrix" values="0 0 0 0 0 0 0 0 0 0 0 0 0 0 0 0 0 0 127 0" result="hardAlpha"/>
<feOffset dy="2"/>
<feGaussianBlur stdDeviation="3.5"/>
<feComposite in2="hardAlpha" operator="out"/>
<feColorMatrix type="matrix" values="0 0 0 0 0 0 0 0 0 0 0 0 0 0 0 0 0 0 0.2 0"/>
<feBlend mode="normal" in2="BackgroundImageFix" result="effect1_dropShadow_720_2080"/>
<feBlend mode="normal" in="SourceGraphic" in2="effect1_dropShadow_720_2080" result="shape"/>
</filter>
</defs>
</svg>
