<svg width="47" height="46" viewBox="0 0 47 46" fill="none" xmlns="http://www.w3.org/2000/svg">
<g filter="url(#filter0_d_720_8003)">
<circle cx="23.5" cy="21" r="16" fill="white"/>
</g>
<g clip-path="url(#clip0_720_8003)">
<path fill-rule="evenodd" clip-rule="evenodd" d="M17.5 20C16.9477 20 16.5 20.4477 16.5 21V22L30.5 22V21C30.5 20.4477 30.0523 20 29.5 20H17.5Z" fill="#0BC58D"/>
<path d="M16.5 21C16.5 20.4477 16.9477 20 17.5 20H29.5C30.0523 20 30.5 20.4477 30.5 21V22C30.5 24.7614 28.2614 27 25.5 27H21.5C18.7386 27 16.5 24.7614 16.5 22V21Z" stroke="#1A1E27" stroke-width="1.2"/>
<rect x="20.5" y="27" width="6" height="1.5" rx="0.75" fill="#0BC58D" stroke="#1A1E27" stroke-width="1.2"/>
<line x1="16.5" y1="22.4" x2="30.5" y2="22.4" stroke="#1A1E27" stroke-width="1.2"/>
<path d="M21 15V20" stroke="#1A1E27" stroke-width="1.2" stroke-linecap="round"/>
<path d="M23.5 15V20" stroke="#1A1E27" stroke-width="1.2" stroke-linecap="round"/>
<path d="M26 15V20" stroke="#1A1E27" stroke-width="1.2" stroke-linecap="round"/>
<path d="M19.5 14.5H30.5" stroke="#1A1E27" stroke-width="1.2" stroke-linecap="round"/>
<path d="M19.5 17H21M30.5 17H26.2222" stroke="#1A1E27" stroke-width="1.2" stroke-linecap="round"/>
</g>
<defs>
<filter id="filter0_d_720_8003" x="0.5" y="0" width="46" height="46" filterUnits="userSpaceOnUse" color-interpolation-filters="sRGB">
<feFlood flood-opacity="0" result="BackgroundImageFix"/>
<feColorMatrix in="SourceAlpha" type="matrix" values="0 0 0 0 0 0 0 0 0 0 0 0 0 0 0 0 0 0 127 0" result="hardAlpha"/>
<feOffset dy="2"/>
<feGaussianBlur stdDeviation="3.5"/>
<feComposite in2="hardAlpha" operator="out"/>
<feColorMatrix type="matrix" values="0 0 0 0 0 0 0 0 0 0 0 0 0 0 0 0 0 0 0.2 0"/>
<feBlend mode="normal" in2="BackgroundImageFix" result="effect1_dropShadow_720_8003"/>
<feBlend mode="normal" in="SourceGraphic" in2="effect1_dropShadow_720_8003" result="shape"/>
</filter>
<clipPath id="clip0_720_8003">
<rect width="24" height="24" fill="white" transform="translate(11.5 9)"/>
</clipPath>
</defs>
</svg>
