<svg width="46" height="46" viewBox="0 0 46 46" fill="none" xmlns="http://www.w3.org/2000/svg">
<g filter="url(#filter0_d_720_5245)">
<circle cx="23" cy="21" r="16" fill="white"/>
</g>
<path d="M19 29H27L27.5 23.5H18.5L19 29Z" fill="#0BC58D"/>
<path d="M18 18H28L27 29H19L18 18Z" stroke="#1A1E27" stroke-width="1.2" stroke-linejoin="round"/>
<path d="M19 29H27L27.5 23.5H18.5L19 29Z" stroke="#1A1E27" stroke-width="1.2" stroke-linejoin="round"/>
<path d="M26.5692 12.1897C26.674 11.8754 26.5041 11.5356 26.1897 11.4308C25.8754 11.326 25.5356 11.4959 25.4308 11.8103L26.5692 12.1897ZM25.5692 15.1897L26.5692 12.1897L25.4308 11.8103L24.4308 14.8103L25.5692 15.1897Z" fill="#1A1E27"/>
<path d="M17.5 15H28.5L29 18H17L17.5 15Z" fill="#0BC58D" stroke="#1A1E27" stroke-width="1.2" stroke-linejoin="round"/>
<defs>
<filter id="filter0_d_720_5245" x="0" y="0" width="46" height="46" filterUnits="userSpaceOnUse" color-interpolation-filters="sRGB">
<feFlood flood-opacity="0" result="BackgroundImageFix"/>
<feColorMatrix in="SourceAlpha" type="matrix" values="0 0 0 0 0 0 0 0 0 0 0 0 0 0 0 0 0 0 127 0" result="hardAlpha"/>
<feOffset dy="2"/>
<feGaussianBlur stdDeviation="3.5"/>
<feComposite in2="hardAlpha" operator="out"/>
<feColorMatrix type="matrix" values="0 0 0 0 0 0 0 0 0 0 0 0 0 0 0 0 0 0 0.2 0"/>
<feBlend mode="normal" in2="BackgroundImageFix" result="effect1_dropShadow_720_5245"/>
<feBlend mode="normal" in="SourceGraphic" in2="effect1_dropShadow_720_5245" result="shape"/>
</filter>
</defs>
</svg>
